<svg xmlns="http://www.w3.org/2000/svg" version="1.1" xmlns:xlink="http://www.w3.org/1999/xlink" xmlns:svgjs="http://svgjs.dev/svgjs" width="32" height="32"><svg xmlns="http://www.w3.org/2000/svg" version="1.1" viewBox="0 0 32 32">
  <defs>
    <style>
      .cls-1 {
        fill: #ff4554;
      }
    </style>
  </defs>
  <!-- Generator: Adobe Illustrator 28.6.0, SVG Export Plug-In . SVG Version: 1.2.0 Build 709)  -->
  <g>
    <g id="SvgjsG1023">
      <g>
        <polygon class="cls-1" points="22.2 17.7 17.4 23.6 21.4 28.5 24.1 28.5 27.5 28.5 31 28.5 22.2 17.7"></polygon>
        <polygon class="cls-1" points="30.8 3.5 27.5 3.5 27.5 3.5 27.5 3.5 27.5 3.5 24.1 3.5 24.1 3.5 21.4 3.5 17.4 8.4 22.2 14.3 22.2 14.3 31 3.5 30.8 3.5"></polygon>
        <polygon class="cls-1" points="15.7 9.6 10.7 3.5 1 3.5 1 3.5 6 9.6 11.2 16 6 22.4 1 28.5 10.4 28.5 10.7 28.5 15.7 22.4 20.8 16 15.7 9.6"></polygon>
      </g>
    </g>
  </g>
</svg><style>@media (prefers-color-scheme: light) { :root { filter: none; } }
@media (prefers-color-scheme: dark) { :root { filter: none; } }
</style></svg>
